<svg width="3" height="13" viewBox="0 0 3 13" fill="none" xmlns="http://www.w3.org/2000/svg">
<path d="M1.5 3.375C1.74723 3.375 1.9889 3.30169 2.19446 3.16434C2.40002 3.02699 2.56024 2.83176 2.65485 2.60336C2.74946 2.37495 2.77421 2.12361 2.72598 1.88114C2.67775 1.63866 2.5587 1.41593 2.38388 1.24112C2.20907 1.0663 1.98634 0.94725 1.74386 0.899019C1.50139 0.850787 1.25005 0.875542 1.02165 0.970151C0.793239 1.06476 0.598016 1.22498 0.460664 1.43054C0.323312 1.6361 0.250001 1.87777 0.250001 2.125C0.250001 2.45652 0.381697 2.77446 0.616117 3.00888C0.850538 3.2433 1.16848 3.375 1.5 3.375ZM1.5 9.625C1.25277 9.625 1.0111 9.69831 0.805538 9.83566C0.599977 9.97302 0.439761 10.1682 0.345151 10.3966C0.250542 10.6251 0.225787 10.8764 0.274019 11.1189C0.32225 11.3613 0.441302 11.5841 0.616117 11.7589C0.790933 11.9337 1.01366 12.0528 1.25614 12.101C1.49861 12.1492 1.74995 12.1245 1.97835 12.0299C2.20676 11.9352 2.40199 11.775 2.53934 11.5695C2.67669 11.3639 2.75 11.1222 2.75 10.875C2.75 10.5435 2.6183 10.2255 2.38388 9.99112C2.14946 9.7567 1.83152 9.625 1.5 9.625ZM1.5 5.25C1.25277 5.25 1.0111 5.32331 0.805538 5.46066C0.599977 5.59802 0.439761 5.79324 0.345151 6.02165C0.250542 6.25005 0.225787 6.50139 0.274019 6.74386C0.32225 6.98634 0.441302 7.20907 0.616117 7.38388C0.790933 7.5587 1.01366 7.67775 1.25614 7.72598C1.49861 7.77421 1.74995 7.74946 1.97835 7.65485C2.20676 7.56024 2.40199 7.40003 2.53934 7.19446C2.67669 6.9889 2.75 6.74723 2.75 6.5C2.75 6.16848 2.6183 5.85054 2.38388 5.61612C2.14946 5.3817 1.83152 5.25 1.5 5.25Z" fill="#C4C4C4"/>
</svg>
